<?xml version="1.0" encoding="UTF-8" standalone="no"?>
<!DOCTYPE svg PUBLIC "-//W3C//DTD SVG 1.1//EN"
 "http://www.w3.org/Graphics/SVG/1.1/DTD/svg11.dtd">
<!-- Generated by graphviz version 10.0.1 (20240210.2158)
 -->
<!-- Title: usb_protocol Pages: 1 -->
<svg width="718pt" height="232pt"
 viewBox="0.00 0.00 718.00 232.00" xmlns="http://www.w3.org/2000/svg" xmlns:xlink="http://www.w3.org/1999/xlink">
<g id="graph0" class="graph" transform="scale(1 1) rotate(0) translate(4 228)">
<title>usb_protocol</title>
<polygon fill="white" stroke="none" points="-4,4 -4,-228 714,-228 714,4 -4,4"/>
<!-- DISCOVER -->
<g id="node1" class="node">
<title>DISCOVER</title>
<path fill="#eef4fb" stroke="black" d="M461.62,-224C461.62,-224 278.38,-224 278.38,-224 272.38,-224 266.38,-218 266.38,-212 266.38,-212 266.38,-200 266.38,-200 266.38,-194 272.38,-188 278.38,-188 278.38,-188 461.62,-188 461.62,-188 467.62,-188 473.62,-194 473.62,-200 473.62,-200 473.62,-212 473.62,-212 473.62,-218 467.62,-224 461.62,-224"/>
<text text-anchor="middle" x="370" y="-208.3" font-family="Helvetica,sans-Serif" font-size="11.00">AutoSerialComm: open candidate CDC</text>
<text text-anchor="middle" x="370" y="-195.55" font-family="Helvetica,sans-Serif" font-size="11.00">Read info and USB capabilities</text>
</g>
<!-- LEGACY -->
<g id="node2" class="node">
<title>LEGACY</title>
<path fill="#eef4fb" stroke="black" d="M202,-135.62C202,-135.62 12,-135.62 12,-135.62 6,-135.62 0,-129.62 0,-123.62 0,-123.62 0,-111.62 0,-111.62 0,-105.62 6,-99.62 12,-99.62 12,-99.62 202,-99.62 202,-99.62 208,-99.62 214,-105.62 214,-111.62 214,-111.62 214,-123.62 214,-123.62 214,-129.62 208,-135.62 202,-135.62"/>
<text text-anchor="middle" x="107" y="-119.92" font-family="Helvetica,sans-Serif" font-size="11.00">ascii&#45;nx: SerialComm / DualSerialComm</text>
<text text-anchor="middle" x="107" y="-107.17" font-family="Helvetica,sans-Serif" font-size="11.00">Text commands; NX on primary CDC</text>
</g>
<!-- DISCOVER&#45;&gt;LEGACY -->
<g id="edge1" class="edge">
<title>DISCOVER&#45;&gt;LEGACY</title>
<path fill="none" stroke="black" d="M310.67,-187.58C292.51,-182.11 272.52,-175.95 254.25,-170 225.06,-160.5 192.84,-149.34 166,-139.85"/>
<polygon fill="black" stroke="black" points="167.26,-136.58 156.67,-136.54 164.92,-143.18 167.26,-136.58"/>
<text text-anchor="middle" x="310.88" y="-161.45" font-family="Helvetica,sans-Serif" font-size="9.00">legacy metadata or ascii&#45;nx</text>
</g>
<!-- BINARY -->
<g id="node3" class="node">
<title>BINARY</title>
<path fill="#eef4fb" stroke="black" d="M495.75,-140.75C495.75,-140.75 244.25,-140.75 244.25,-140.75 238.25,-140.75 232.25,-134.75 232.25,-128.75 232.25,-128.75 232.25,-106.5 232.25,-106.5 232.25,-100.5 238.25,-94.5 244.25,-94.5 244.25,-94.5 495.75,-94.5 495.75,-94.5 501.75,-94.5 507.75,-100.5 507.75,-106.5 507.75,-106.5 507.75,-128.75 507.75,-128.75 507.75,-134.75 501.75,-140.75 495.75,-140.75"/>
<text text-anchor="middle" x="370" y="-126.3" font-family="Helvetica,sans-Serif" font-size="11.00">protobuf&#45;v1: ProtobufSerialComm</text>
<text text-anchor="middle" x="370" y="-113.55" font-family="Helvetica,sans-Serif" font-size="11.00">Primary text / secondary binary RPC</text>
<text text-anchor="middle" x="370" y="-100.8" font-family="Helvetica,sans-Serif" font-size="11.00">Features gate model writes and batch/gesture motion</text>
</g>
<!-- DISCOVER&#45;&gt;BINARY -->
<g id="edge2" class="edge">
<title>DISCOVER&#45;&gt;BINARY</title>
<path fill="none" stroke="black" d="M370,-187.52C370,-177.46 370,-164.48 370,-152.51"/>
<polygon fill="black" stroke="black" points="373.5,-152.52 370,-142.52 366.5,-152.52 373.5,-152.52"/>
<text text-anchor="middle" x="449.12" y="-161.45" font-family="Helvetica,sans-Serif" font-size="9.00">explicit metadata + compatible runtime</text>
</g>
<!-- REJECT -->
<g id="node4" class="node">
<title>REJECT</title>
<path fill="#fbeeee" stroke="black" d="M698,-135.62C698,-135.62 538,-135.62 538,-135.62 532,-135.62 526,-129.62 526,-123.62 526,-123.62 526,-111.62 526,-111.62 526,-105.62 532,-99.62 538,-99.62 538,-99.62 698,-99.62 698,-99.62 704,-99.62 710,-105.62 710,-111.62 710,-111.62 710,-123.62 710,-123.62 710,-129.62 704,-135.62 698,-135.62"/>
<text text-anchor="middle" x="618" y="-119.92" font-family="Helvetica,sans-Serif" font-size="11.00">Unknown protocol / missing sibling</text>
<text text-anchor="middle" x="618" y="-107.17" font-family="Helvetica,sans-Serif" font-size="11.00">Close ports; no fallback guess</text>
</g>
<!-- DISCOVER&#45;&gt;REJECT -->
<g id="edge3" class="edge">
<title>DISCOVER&#45;&gt;REJECT</title>
<path fill="none" stroke="black" d="M473.9,-187.81C493.54,-183.1 513.66,-177.23 532,-170 550.18,-162.83 568.97,-152.05 584.34,-142.22"/>
<polygon fill="black" stroke="black" points="586.19,-145.19 592.63,-136.77 582.35,-139.34 586.19,-145.19"/>
<text text-anchor="middle" x="622.62" y="-161.45" font-family="Helvetica,sans-Serif" font-size="9.00">unsupported or incomplete layout</text>
</g>
<!-- SDK -->
<g id="node5" class="node">
<title>SDK</title>
<path fill="#eef4fb" stroke="black" d="M357.75,-36C357.75,-36 118.25,-36 118.25,-36 112.25,-36 106.25,-30 106.25,-24 106.25,-24 106.25,-12 106.25,-12 106.25,-6 112.25,0 118.25,0 118.25,0 357.75,0 357.75,0 363.75,0 369.75,-6 369.75,-12 369.75,-12 369.75,-24 369.75,-24 369.75,-30 363.75,-36 357.75,-36"/>
<text text-anchor="middle" x="238" y="-20.3" font-family="Helvetica,sans-Serif" font-size="11.00">HandExo API / GUI / benchmark</text>
<text text-anchor="middle" x="238" y="-7.55" font-family="Helvetica,sans-Serif" font-size="11.00">Typed motor/model calls and common NX decoder</text>
</g>
<!-- LEGACY&#45;&gt;SDK -->
<g id="edge4" class="edge">
<title>LEGACY&#45;&gt;SDK</title>
<path fill="none" stroke="black" d="M130.42,-99.17C151.38,-83.55 182.3,-60.51 205.62,-43.13"/>
<polygon fill="black" stroke="black" points="207.64,-45.99 213.57,-37.21 203.46,-40.38 207.64,-45.99"/>
</g>
<!-- BINARY&#45;&gt;SDK -->
<g id="edge5" class="edge">
<title>BINARY&#45;&gt;SDK</title>
<path fill="none" stroke="black" d="M339.72,-94.23C319.12,-79 291.89,-58.86 270.79,-43.25"/>
<polygon fill="black" stroke="black" points="272.9,-40.46 262.78,-37.33 268.74,-46.09 272.9,-40.46"/>
<text text-anchor="middle" x="372" y="-67.95" font-family="Helvetica,sans-Serif" font-size="9.00">disable legacy NX polling</text>
<text text-anchor="middle" x="372" y="-56.7" font-family="Helvetica,sans-Serif" font-size="9.00">and ASCII shadow streaming</text>
</g>
</g>
</svg>
